M48
; DRILL file {KiCad (5.1.4-0-10_14)} date Tuesday, 29 October 2019 at 14:07:37
; FORMAT={-:-/ absolute / inch / decimal}
; #@! TF.CreationDate,2019-10-29T14:07:37+01:00
; #@! TF.GenerationSoftware,Kicad,Pcbnew,(5.1.4-0-10_14)
; #@! TF.FileFunction,Plated,1,2,PTH
FMAT,2
INCH
T1C0.1260
T2C0.1969
T3C0.2559
T4C0.2638
T5C0.2953
%
G90
G05
T1
X7.1646Y-6.5466
X4.564Y-1.7235
X4.5648Y-6.5474
X7.1638Y-1.7243
T2
X6.7206Y-5.1055
T3
X4.4982Y-5.9193
X5.397Y-5.9193
X4.5007Y-4.1675
X4.4998Y-3.2346
X4.5015Y-5.1113
X7.1646Y-5.1121
X4.9505Y-5.9185
X7.1963Y-5.9185
X6.2974Y-5.9193
X6.7456Y-5.9185
X4.5007Y-2.2916
X5.8485Y-5.9202
T4
X5.387Y-2.2899
X5.3861Y-3.2337
X5.3861Y-4.1642
T5
X7.1163Y-2.2841
X7.1163Y-4.1575
X7.1163Y-3.2296
X6.2208Y-2.2833
X6.2216Y-3.2304
X6.2208Y-5.1063
X6.2208Y-4.1567
X5.3853Y-5.1055
T0
M30
