G04 #@! TF.GenerationSoftware,KiCad,Pcbnew,(5.1.4-0-10_14)*
G04 #@! TF.CreationDate,2019-10-29T14:06:04+01:00*
G04 #@! TF.ProjectId,benjolin_panel3,62656e6a-6f6c-4696-9e5f-70616e656c33,rev?*
G04 #@! TF.SameCoordinates,Original*
G04 #@! TF.FileFunction,Copper,L2,Bot*
G04 #@! TF.FilePolarity,Positive*
%FSLAX46Y46*%
G04 Gerber Fmt 4.6, Leading zero omitted, Abs format (unit mm)*
G04 Created by KiCad (PCBNEW (5.1.4-0-10_14)) date 2019-10-29 14:06:04*
%MOMM*%
%LPD*%
G04 APERTURE LIST*
%ADD10C,0.300000*%
%ADD11C,10.000000*%
%ADD12C,7.000000*%
%ADD13C,13.000000*%
%ADD14C,9.000000*%
%ADD15C,7.700000*%
%ADD16C,4.000000*%
%ADD17C,0.254000*%
G04 APERTURE END LIST*
D10*
X159478857Y-159143714D02*
X159550285Y-159215142D01*
X159764571Y-159286571D01*
X159907428Y-159286571D01*
X160121714Y-159215142D01*
X160264571Y-159072285D01*
X160336000Y-158929428D01*
X160407428Y-158643714D01*
X160407428Y-158429428D01*
X160336000Y-158143714D01*
X160264571Y-158000857D01*
X160121714Y-157858000D01*
X159907428Y-157786571D01*
X159764571Y-157786571D01*
X159550285Y-157858000D01*
X159478857Y-157929428D01*
X157978857Y-159143714D02*
X158050285Y-159215142D01*
X158264571Y-159286571D01*
X158407428Y-159286571D01*
X158621714Y-159215142D01*
X158764571Y-159072285D01*
X158836000Y-158929428D01*
X158907428Y-158643714D01*
X158907428Y-158429428D01*
X158836000Y-158143714D01*
X158764571Y-158000857D01*
X158621714Y-157858000D01*
X158407428Y-157786571D01*
X158264571Y-157786571D01*
X158050285Y-157858000D01*
X157978857Y-157929428D01*
X157336000Y-158715142D02*
X156193142Y-158715142D01*
X154978857Y-158500857D02*
X154764571Y-158572285D01*
X154693142Y-158643714D01*
X154621714Y-158786571D01*
X154621714Y-159000857D01*
X154693142Y-159143714D01*
X154764571Y-159215142D01*
X154907428Y-159286571D01*
X155478857Y-159286571D01*
X155478857Y-157786571D01*
X154978857Y-157786571D01*
X154836000Y-157858000D01*
X154764571Y-157929428D01*
X154693142Y-158072285D01*
X154693142Y-158215142D01*
X154764571Y-158358000D01*
X154836000Y-158429428D01*
X154978857Y-158500857D01*
X155478857Y-158500857D01*
X154121714Y-158286571D02*
X153764571Y-159286571D01*
X153407428Y-158286571D02*
X153764571Y-159286571D01*
X153907428Y-159643714D01*
X153978857Y-159715142D01*
X154121714Y-159786571D01*
X152836000Y-158715142D02*
X151693142Y-158715142D01*
X150978857Y-159286571D02*
X150978857Y-157786571D01*
X150121714Y-159286571D01*
X150121714Y-157786571D01*
X148550285Y-159143714D02*
X148621714Y-159215142D01*
X148836000Y-159286571D01*
X148978857Y-159286571D01*
X149193142Y-159215142D01*
X149336000Y-159072285D01*
X149407428Y-158929428D01*
X149478857Y-158643714D01*
X149478857Y-158429428D01*
X149407428Y-158143714D01*
X149336000Y-158000857D01*
X149193142Y-157858000D01*
X148978857Y-157786571D01*
X148836000Y-157786571D01*
X148621714Y-157858000D01*
X148550285Y-157929428D01*
X146121714Y-158286571D02*
X146121714Y-159286571D01*
X146478857Y-157715142D02*
X146836000Y-158786571D01*
X145907428Y-158786571D01*
X145336000Y-159143714D02*
X145264571Y-159215142D01*
X145336000Y-159286571D01*
X145407428Y-159215142D01*
X145336000Y-159143714D01*
X145336000Y-159286571D01*
X144336000Y-157786571D02*
X144193142Y-157786571D01*
X144050285Y-157858000D01*
X143978857Y-157929428D01*
X143907428Y-158072285D01*
X143836000Y-158358000D01*
X143836000Y-158715142D01*
X143907428Y-159000857D01*
X143978857Y-159143714D01*
X144050285Y-159215142D01*
X144193142Y-159286571D01*
X144336000Y-159286571D01*
X144478857Y-159215142D01*
X144550285Y-159143714D01*
X144621714Y-159000857D01*
X144693142Y-158715142D01*
X144693142Y-158358000D01*
X144621714Y-158072285D01*
X144550285Y-157929428D01*
X144478857Y-157858000D01*
X144336000Y-157786571D01*
X143121714Y-159215142D02*
X143121714Y-159286571D01*
X143193142Y-159429428D01*
X143264571Y-159500857D01*
X141407428Y-157929428D02*
X141336000Y-157858000D01*
X141193142Y-157786571D01*
X140836000Y-157786571D01*
X140693142Y-157858000D01*
X140621714Y-157929428D01*
X140550285Y-158072285D01*
X140550285Y-158215142D01*
X140621714Y-158429428D01*
X141478857Y-159286571D01*
X140550285Y-159286571D01*
X139621714Y-157786571D02*
X139478857Y-157786571D01*
X139336000Y-157858000D01*
X139264571Y-157929428D01*
X139193142Y-158072285D01*
X139121714Y-158358000D01*
X139121714Y-158715142D01*
X139193142Y-159000857D01*
X139264571Y-159143714D01*
X139336000Y-159215142D01*
X139478857Y-159286571D01*
X139621714Y-159286571D01*
X139764571Y-159215142D01*
X139836000Y-159143714D01*
X139907428Y-159000857D01*
X139978857Y-158715142D01*
X139978857Y-158358000D01*
X139907428Y-158072285D01*
X139836000Y-157929428D01*
X139764571Y-157858000D01*
X139621714Y-157786571D01*
X137693142Y-159286571D02*
X138550285Y-159286571D01*
X138121714Y-159286571D02*
X138121714Y-157786571D01*
X138264571Y-158000857D01*
X138407428Y-158143714D01*
X138550285Y-158215142D01*
X136978857Y-159286571D02*
X136693142Y-159286571D01*
X136550285Y-159215142D01*
X136478857Y-159143714D01*
X136336000Y-158929428D01*
X136264571Y-158643714D01*
X136264571Y-158072285D01*
X136336000Y-157929428D01*
X136407428Y-157858000D01*
X136550285Y-157786571D01*
X136836000Y-157786571D01*
X136978857Y-157858000D01*
X137050285Y-157929428D01*
X137121714Y-158072285D01*
X137121714Y-158429428D01*
X137050285Y-158572285D01*
X136978857Y-158643714D01*
X136836000Y-158715142D01*
X136550285Y-158715142D01*
X136407428Y-158643714D01*
X136336000Y-158572285D01*
X136264571Y-158429428D01*
X159693142Y-161836571D02*
X159693142Y-160336571D01*
X158836000Y-161836571D01*
X158836000Y-160336571D01*
X157907428Y-161836571D02*
X158050285Y-161765142D01*
X158121714Y-161693714D01*
X158193142Y-161550857D01*
X158193142Y-161122285D01*
X158121714Y-160979428D01*
X158050285Y-160908000D01*
X157907428Y-160836571D01*
X157693142Y-160836571D01*
X157550285Y-160908000D01*
X157478857Y-160979428D01*
X157407428Y-161122285D01*
X157407428Y-161550857D01*
X157478857Y-161693714D01*
X157550285Y-161765142D01*
X157693142Y-161836571D01*
X157907428Y-161836571D01*
X156764571Y-160836571D02*
X156764571Y-161836571D01*
X156764571Y-160979428D02*
X156693142Y-160908000D01*
X156550285Y-160836571D01*
X156336000Y-160836571D01*
X156193142Y-160908000D01*
X156121714Y-161050857D01*
X156121714Y-161836571D01*
X153621714Y-161765142D02*
X153764571Y-161836571D01*
X154050285Y-161836571D01*
X154193142Y-161765142D01*
X154264571Y-161693714D01*
X154336000Y-161550857D01*
X154336000Y-161122285D01*
X154264571Y-160979428D01*
X154193142Y-160908000D01*
X154050285Y-160836571D01*
X153764571Y-160836571D01*
X153621714Y-160908000D01*
X152764571Y-161836571D02*
X152907428Y-161765142D01*
X152978857Y-161693714D01*
X153050285Y-161550857D01*
X153050285Y-161122285D01*
X152978857Y-160979428D01*
X152907428Y-160908000D01*
X152764571Y-160836571D01*
X152550285Y-160836571D01*
X152407428Y-160908000D01*
X152336000Y-160979428D01*
X152264571Y-161122285D01*
X152264571Y-161550857D01*
X152336000Y-161693714D01*
X152407428Y-161765142D01*
X152550285Y-161836571D01*
X152764571Y-161836571D01*
X151621714Y-161836571D02*
X151621714Y-160836571D01*
X151621714Y-160979428D02*
X151550285Y-160908000D01*
X151407428Y-160836571D01*
X151193142Y-160836571D01*
X151050285Y-160908000D01*
X150978857Y-161050857D01*
X150978857Y-161836571D01*
X150978857Y-161050857D02*
X150907428Y-160908000D01*
X150764571Y-160836571D01*
X150550285Y-160836571D01*
X150407428Y-160908000D01*
X150336000Y-161050857D01*
X150336000Y-161836571D01*
X149621714Y-161836571D02*
X149621714Y-160836571D01*
X149621714Y-160979428D02*
X149550285Y-160908000D01*
X149407428Y-160836571D01*
X149193142Y-160836571D01*
X149050285Y-160908000D01*
X148978857Y-161050857D01*
X148978857Y-161836571D01*
X148978857Y-161050857D02*
X148907428Y-160908000D01*
X148764571Y-160836571D01*
X148550285Y-160836571D01*
X148407428Y-160908000D01*
X148336000Y-161050857D01*
X148336000Y-161836571D01*
X147050285Y-161765142D02*
X147193142Y-161836571D01*
X147478857Y-161836571D01*
X147621714Y-161765142D01*
X147693142Y-161622285D01*
X147693142Y-161050857D01*
X147621714Y-160908000D01*
X147478857Y-160836571D01*
X147193142Y-160836571D01*
X147050285Y-160908000D01*
X146978857Y-161050857D01*
X146978857Y-161193714D01*
X147693142Y-161336571D01*
X146336000Y-161836571D02*
X146336000Y-160836571D01*
X146336000Y-161122285D02*
X146264571Y-160979428D01*
X146193142Y-160908000D01*
X146050285Y-160836571D01*
X145907428Y-160836571D01*
X144764571Y-161765142D02*
X144907428Y-161836571D01*
X145193142Y-161836571D01*
X145336000Y-161765142D01*
X145407428Y-161693714D01*
X145478857Y-161550857D01*
X145478857Y-161122285D01*
X145407428Y-160979428D01*
X145336000Y-160908000D01*
X145193142Y-160836571D01*
X144907428Y-160836571D01*
X144764571Y-160908000D01*
X144121714Y-161836571D02*
X144121714Y-160836571D01*
X144121714Y-160336571D02*
X144193142Y-160408000D01*
X144121714Y-160479428D01*
X144050285Y-160408000D01*
X144121714Y-160336571D01*
X144121714Y-160479428D01*
X142764571Y-161836571D02*
X142764571Y-161050857D01*
X142836000Y-160908000D01*
X142978857Y-160836571D01*
X143264571Y-160836571D01*
X143407428Y-160908000D01*
X142764571Y-161765142D02*
X142907428Y-161836571D01*
X143264571Y-161836571D01*
X143407428Y-161765142D01*
X143478857Y-161622285D01*
X143478857Y-161479428D01*
X143407428Y-161336571D01*
X143264571Y-161265142D01*
X142907428Y-161265142D01*
X142764571Y-161193714D01*
X141836000Y-161836571D02*
X141978857Y-161765142D01*
X142050285Y-161622285D01*
X142050285Y-160336571D01*
X139478857Y-160836571D02*
X139478857Y-161836571D01*
X140121714Y-160836571D02*
X140121714Y-161622285D01*
X140050285Y-161765142D01*
X139907428Y-161836571D01*
X139693142Y-161836571D01*
X139550285Y-161765142D01*
X139478857Y-161693714D01*
X138836000Y-161765142D02*
X138693142Y-161836571D01*
X138407428Y-161836571D01*
X138264571Y-161765142D01*
X138193142Y-161622285D01*
X138193142Y-161550857D01*
X138264571Y-161408000D01*
X138407428Y-161336571D01*
X138621714Y-161336571D01*
X138764571Y-161265142D01*
X138836000Y-161122285D01*
X138836000Y-161050857D01*
X138764571Y-160908000D01*
X138621714Y-160836571D01*
X138407428Y-160836571D01*
X138264571Y-160908000D01*
X136978857Y-161765142D02*
X137121714Y-161836571D01*
X137407428Y-161836571D01*
X137550285Y-161765142D01*
X137621714Y-161622285D01*
X137621714Y-161050857D01*
X137550285Y-160908000D01*
X137407428Y-160836571D01*
X137121714Y-160836571D01*
X136978857Y-160908000D01*
X136907428Y-161050857D01*
X136907428Y-161193714D01*
X137621714Y-161336571D01*
X150728857Y-164386571D02*
X150728857Y-162886571D01*
X150228857Y-163958000D01*
X149728857Y-162886571D01*
X149728857Y-164386571D01*
X148371714Y-164386571D02*
X148371714Y-163600857D01*
X148443142Y-163458000D01*
X148586000Y-163386571D01*
X148871714Y-163386571D01*
X149014571Y-163458000D01*
X148371714Y-164315142D02*
X148514571Y-164386571D01*
X148871714Y-164386571D01*
X149014571Y-164315142D01*
X149086000Y-164172285D01*
X149086000Y-164029428D01*
X149014571Y-163886571D01*
X148871714Y-163815142D01*
X148514571Y-163815142D01*
X148371714Y-163743714D01*
X147871714Y-163386571D02*
X147300285Y-163386571D01*
X147657428Y-162886571D02*
X147657428Y-164172285D01*
X147586000Y-164315142D01*
X147443142Y-164386571D01*
X147300285Y-164386571D01*
X147014571Y-163386571D02*
X146443142Y-163386571D01*
X146800285Y-162886571D02*
X146800285Y-164172285D01*
X146728857Y-164315142D01*
X146586000Y-164386571D01*
X146443142Y-164386571D01*
X145943142Y-164386571D02*
X145943142Y-163386571D01*
X145943142Y-162886571D02*
X146014571Y-162958000D01*
X145943142Y-163029428D01*
X145871714Y-162958000D01*
X145943142Y-162886571D01*
X145943142Y-163029428D01*
X166193142Y-165436571D02*
X165907428Y-165436571D01*
X165764571Y-165508000D01*
X165621714Y-165650857D01*
X165550285Y-165936571D01*
X165550285Y-166436571D01*
X165621714Y-166722285D01*
X165764571Y-166865142D01*
X165907428Y-166936571D01*
X166193142Y-166936571D01*
X166336000Y-166865142D01*
X166478857Y-166722285D01*
X166550285Y-166436571D01*
X166550285Y-165936571D01*
X166478857Y-165650857D01*
X166336000Y-165508000D01*
X166193142Y-165436571D01*
X164907428Y-166936571D02*
X164907428Y-165936571D01*
X164907428Y-166222285D02*
X164836000Y-166079428D01*
X164764571Y-166008000D01*
X164621714Y-165936571D01*
X164478857Y-165936571D01*
X163978857Y-166936571D02*
X163978857Y-165936571D01*
X163978857Y-165436571D02*
X164050285Y-165508000D01*
X163978857Y-165579428D01*
X163907428Y-165508000D01*
X163978857Y-165436571D01*
X163978857Y-165579428D01*
X162621714Y-165936571D02*
X162621714Y-167150857D01*
X162693142Y-167293714D01*
X162764571Y-167365142D01*
X162907428Y-167436571D01*
X163121714Y-167436571D01*
X163264571Y-167365142D01*
X162621714Y-166865142D02*
X162764571Y-166936571D01*
X163050285Y-166936571D01*
X163193142Y-166865142D01*
X163264571Y-166793714D01*
X163336000Y-166650857D01*
X163336000Y-166222285D01*
X163264571Y-166079428D01*
X163193142Y-166008000D01*
X163050285Y-165936571D01*
X162764571Y-165936571D01*
X162621714Y-166008000D01*
X161907428Y-166936571D02*
X161907428Y-165936571D01*
X161907428Y-165436571D02*
X161978857Y-165508000D01*
X161907428Y-165579428D01*
X161836000Y-165508000D01*
X161907428Y-165436571D01*
X161907428Y-165579428D01*
X161193142Y-165936571D02*
X161193142Y-166936571D01*
X161193142Y-166079428D02*
X161121714Y-166008000D01*
X160978857Y-165936571D01*
X160764571Y-165936571D01*
X160621714Y-166008000D01*
X160550285Y-166150857D01*
X160550285Y-166936571D01*
X159193142Y-166936571D02*
X159193142Y-166150857D01*
X159264571Y-166008000D01*
X159407428Y-165936571D01*
X159693142Y-165936571D01*
X159836000Y-166008000D01*
X159193142Y-166865142D02*
X159336000Y-166936571D01*
X159693142Y-166936571D01*
X159836000Y-166865142D01*
X159907428Y-166722285D01*
X159907428Y-166579428D01*
X159836000Y-166436571D01*
X159693142Y-166365142D01*
X159336000Y-166365142D01*
X159193142Y-166293714D01*
X158264571Y-166936571D02*
X158407428Y-166865142D01*
X158478857Y-166722285D01*
X158478857Y-165436571D01*
X156050285Y-166150857D02*
X155836000Y-166222285D01*
X155764571Y-166293714D01*
X155693142Y-166436571D01*
X155693142Y-166650857D01*
X155764571Y-166793714D01*
X155836000Y-166865142D01*
X155978857Y-166936571D01*
X156550285Y-166936571D01*
X156550285Y-165436571D01*
X156050285Y-165436571D01*
X155907428Y-165508000D01*
X155836000Y-165579428D01*
X155764571Y-165722285D01*
X155764571Y-165865142D01*
X155836000Y-166008000D01*
X155907428Y-166079428D01*
X156050285Y-166150857D01*
X156550285Y-166150857D01*
X154478857Y-166865142D02*
X154621714Y-166936571D01*
X154907428Y-166936571D01*
X155050285Y-166865142D01*
X155121714Y-166722285D01*
X155121714Y-166150857D01*
X155050285Y-166008000D01*
X154907428Y-165936571D01*
X154621714Y-165936571D01*
X154478857Y-166008000D01*
X154407428Y-166150857D01*
X154407428Y-166293714D01*
X155121714Y-166436571D01*
X153764571Y-165936571D02*
X153764571Y-166936571D01*
X153764571Y-166079428D02*
X153693142Y-166008000D01*
X153550285Y-165936571D01*
X153336000Y-165936571D01*
X153193142Y-166008000D01*
X153121714Y-166150857D01*
X153121714Y-166936571D01*
X152407428Y-165936571D02*
X152407428Y-167222285D01*
X152478857Y-167365142D01*
X152621714Y-167436571D01*
X152693142Y-167436571D01*
X152407428Y-165436571D02*
X152478857Y-165508000D01*
X152407428Y-165579428D01*
X152336000Y-165508000D01*
X152407428Y-165436571D01*
X152407428Y-165579428D01*
X151478857Y-166936571D02*
X151621714Y-166865142D01*
X151693142Y-166793714D01*
X151764571Y-166650857D01*
X151764571Y-166222285D01*
X151693142Y-166079428D01*
X151621714Y-166008000D01*
X151478857Y-165936571D01*
X151264571Y-165936571D01*
X151121714Y-166008000D01*
X151050285Y-166079428D01*
X150978857Y-166222285D01*
X150978857Y-166650857D01*
X151050285Y-166793714D01*
X151121714Y-166865142D01*
X151264571Y-166936571D01*
X151478857Y-166936571D01*
X150121714Y-166936571D02*
X150264571Y-166865142D01*
X150336000Y-166722285D01*
X150336000Y-165436571D01*
X149550285Y-166936571D02*
X149550285Y-165936571D01*
X149550285Y-165436571D02*
X149621714Y-165508000D01*
X149550285Y-165579428D01*
X149478857Y-165508000D01*
X149550285Y-165436571D01*
X149550285Y-165579428D01*
X148836000Y-165936571D02*
X148836000Y-166936571D01*
X148836000Y-166079428D02*
X148764571Y-166008000D01*
X148621714Y-165936571D01*
X148407428Y-165936571D01*
X148264571Y-166008000D01*
X148193142Y-166150857D01*
X148193142Y-166936571D01*
X146336000Y-166936571D02*
X146336000Y-165436571D01*
X146336000Y-166008000D02*
X146193142Y-165936571D01*
X145907428Y-165936571D01*
X145764571Y-166008000D01*
X145693142Y-166079428D01*
X145621714Y-166222285D01*
X145621714Y-166650857D01*
X145693142Y-166793714D01*
X145764571Y-166865142D01*
X145907428Y-166936571D01*
X146193142Y-166936571D01*
X146336000Y-166865142D01*
X145121714Y-165936571D02*
X144764571Y-166936571D01*
X144407428Y-165936571D02*
X144764571Y-166936571D01*
X144907428Y-167293714D01*
X144978857Y-167365142D01*
X145121714Y-167436571D01*
X141836000Y-166936571D02*
X142336000Y-166222285D01*
X142693142Y-166936571D02*
X142693142Y-165436571D01*
X142121714Y-165436571D01*
X141978857Y-165508000D01*
X141907428Y-165579428D01*
X141836000Y-165722285D01*
X141836000Y-165936571D01*
X141907428Y-166079428D01*
X141978857Y-166150857D01*
X142121714Y-166222285D01*
X142693142Y-166222285D01*
X140978857Y-166936571D02*
X141121714Y-166865142D01*
X141193142Y-166793714D01*
X141264571Y-166650857D01*
X141264571Y-166222285D01*
X141193142Y-166079428D01*
X141121714Y-166008000D01*
X140978857Y-165936571D01*
X140764571Y-165936571D01*
X140621714Y-166008000D01*
X140550285Y-166079428D01*
X140478857Y-166222285D01*
X140478857Y-166650857D01*
X140550285Y-166793714D01*
X140621714Y-166865142D01*
X140764571Y-166936571D01*
X140978857Y-166936571D01*
X139836000Y-166936571D02*
X139836000Y-165436571D01*
X139836000Y-166008000D02*
X139693142Y-165936571D01*
X139407428Y-165936571D01*
X139264571Y-166008000D01*
X139193142Y-166079428D01*
X139121714Y-166222285D01*
X139121714Y-166650857D01*
X139193142Y-166793714D01*
X139264571Y-166865142D01*
X139407428Y-166936571D01*
X139693142Y-166936571D01*
X139836000Y-166865142D01*
X137336000Y-166936571D02*
X137336000Y-165436571D01*
X137336000Y-166150857D02*
X136478857Y-166150857D01*
X136478857Y-166936571D02*
X136478857Y-165436571D01*
X135550285Y-166936571D02*
X135693142Y-166865142D01*
X135764571Y-166793714D01*
X135836000Y-166650857D01*
X135836000Y-166222285D01*
X135764571Y-166079428D01*
X135693142Y-166008000D01*
X135550285Y-165936571D01*
X135336000Y-165936571D01*
X135193142Y-166008000D01*
X135121714Y-166079428D01*
X135050285Y-166222285D01*
X135050285Y-166650857D01*
X135121714Y-166793714D01*
X135193142Y-166865142D01*
X135336000Y-166936571D01*
X135550285Y-166936571D01*
X134407428Y-166936571D02*
X134407428Y-165936571D01*
X134407428Y-166222285D02*
X134336000Y-166079428D01*
X134264571Y-166008000D01*
X134121714Y-165936571D01*
X133978857Y-165936571D01*
X132836000Y-166936571D02*
X132836000Y-165436571D01*
X132836000Y-166865142D02*
X132978857Y-166936571D01*
X133264571Y-166936571D01*
X133407428Y-166865142D01*
X133478857Y-166793714D01*
X133550285Y-166650857D01*
X133550285Y-166222285D01*
X133478857Y-166079428D01*
X133407428Y-166008000D01*
X133264571Y-165936571D01*
X132978857Y-165936571D01*
X132836000Y-166008000D01*
X132121714Y-166936571D02*
X132121714Y-165936571D01*
X132121714Y-165436571D02*
X132193142Y-165508000D01*
X132121714Y-165579428D01*
X132050285Y-165508000D01*
X132121714Y-165436571D01*
X132121714Y-165579428D01*
X131407428Y-165936571D02*
X131407428Y-167222285D01*
X131478857Y-167365142D01*
X131621714Y-167436571D01*
X131693142Y-167436571D01*
X131407428Y-165436571D02*
X131478857Y-165508000D01*
X131407428Y-165579428D01*
X131336000Y-165508000D01*
X131407428Y-165436571D01*
X131407428Y-165579428D01*
X130693142Y-166936571D02*
X130693142Y-165436571D01*
X130550285Y-166365142D02*
X130121714Y-166936571D01*
X130121714Y-165936571D02*
X130693142Y-166508000D01*
D11*
X181980843Y-129848557D03*
D12*
X170703525Y-129679291D03*
D13*
X180753668Y-58016469D03*
X180753668Y-82031025D03*
X180753668Y-105601260D03*
X158008603Y-57995310D03*
X158029762Y-82052185D03*
X158008603Y-105580104D03*
X136786931Y-129679291D03*
X158008603Y-129700450D03*
D14*
X114253446Y-150350854D03*
X182784856Y-150329694D03*
X171338271Y-150329694D03*
X159955159Y-150350854D03*
X148550887Y-150372013D03*
X137083143Y-150350854D03*
X125742350Y-150329694D03*
X114338078Y-129827400D03*
X114316921Y-105855160D03*
X114295762Y-82157975D03*
X114316921Y-58206891D03*
D15*
X136829246Y-58164575D03*
X136808087Y-82136816D03*
X136808087Y-105770525D03*
D16*
X115946103Y-166304135D03*
X181980843Y-166282979D03*
X181959687Y-43798157D03*
X115924943Y-43777000D03*
D17*
G36*
X114676802Y-41441893D02*
G01*
X114245228Y-41730262D01*
X113878205Y-42097285D01*
X113589836Y-42528859D01*
X113391204Y-43008399D01*
X113289943Y-43517475D01*
X113289943Y-44036525D01*
X113391204Y-44545601D01*
X113589836Y-45025141D01*
X113878205Y-45456715D01*
X114245228Y-45823738D01*
X114676802Y-46112107D01*
X115156342Y-46310739D01*
X115665418Y-46412000D01*
X116184468Y-46412000D01*
X116693544Y-46310739D01*
X117173084Y-46112107D01*
X117604658Y-45823738D01*
X117971681Y-45456715D01*
X118260050Y-45025141D01*
X118458682Y-44545601D01*
X118559943Y-44036525D01*
X118559943Y-43517475D01*
X118458682Y-43008399D01*
X118260050Y-42528859D01*
X117971681Y-42097285D01*
X117604658Y-41730262D01*
X117173084Y-41441893D01*
X116942302Y-41346300D01*
X180993405Y-41346300D01*
X180711546Y-41463050D01*
X180279972Y-41751419D01*
X179912949Y-42118442D01*
X179624580Y-42550016D01*
X179425948Y-43029556D01*
X179324687Y-43538632D01*
X179324687Y-44057682D01*
X179425948Y-44566758D01*
X179624580Y-45046298D01*
X179912949Y-45477872D01*
X180279972Y-45844895D01*
X180711546Y-46133264D01*
X181191086Y-46331896D01*
X181700162Y-46433157D01*
X182219212Y-46433157D01*
X182728288Y-46331896D01*
X183207828Y-46133264D01*
X183639402Y-45844895D01*
X184006425Y-45477872D01*
X184294794Y-45046298D01*
X184493426Y-44566758D01*
X184594687Y-44057682D01*
X184594687Y-43538632D01*
X184493426Y-43029556D01*
X184294794Y-42550016D01*
X184006425Y-42118442D01*
X183639402Y-41751419D01*
X183207828Y-41463050D01*
X182925969Y-41346300D01*
X187898400Y-41346300D01*
X187898401Y-149716079D01*
X187722521Y-148831870D01*
X187335434Y-147897359D01*
X186773471Y-147056322D01*
X186058228Y-146341079D01*
X185217191Y-145779116D01*
X184282680Y-145392029D01*
X183290609Y-145194694D01*
X182279103Y-145194694D01*
X181287032Y-145392029D01*
X180352521Y-145779116D01*
X179511484Y-146341079D01*
X178796241Y-147056322D01*
X178234278Y-147897359D01*
X177847191Y-148831870D01*
X177649856Y-149823941D01*
X177649856Y-150835447D01*
X177847191Y-151827518D01*
X178234278Y-152762029D01*
X178796241Y-153603066D01*
X179511484Y-154318309D01*
X180352521Y-154880272D01*
X181287032Y-155267359D01*
X182279103Y-155464694D01*
X183290609Y-155464694D01*
X184282680Y-155267359D01*
X185217191Y-154880272D01*
X186058228Y-154318309D01*
X186773471Y-153603066D01*
X187335434Y-152762029D01*
X187722521Y-151827518D01*
X187898401Y-150943309D01*
X187898401Y-168660900D01*
X183125622Y-168660900D01*
X183228984Y-168618086D01*
X183660558Y-168329717D01*
X184027581Y-167962694D01*
X184315950Y-167531120D01*
X184514582Y-167051580D01*
X184615843Y-166542504D01*
X184615843Y-166023454D01*
X184514582Y-165514378D01*
X184315950Y-165034838D01*
X184027581Y-164603264D01*
X183660558Y-164236241D01*
X183228984Y-163947872D01*
X182749444Y-163749240D01*
X182240368Y-163647979D01*
X181721318Y-163647979D01*
X181212242Y-163749240D01*
X180732702Y-163947872D01*
X180301128Y-164236241D01*
X179934105Y-164603264D01*
X179645736Y-165034838D01*
X179447104Y-165514378D01*
X179345843Y-166023454D01*
X179345843Y-166542504D01*
X179447104Y-167051580D01*
X179645736Y-167531120D01*
X179934105Y-167962694D01*
X180301128Y-168329717D01*
X180732702Y-168618086D01*
X180836064Y-168660900D01*
X117141957Y-168660900D01*
X117194244Y-168639242D01*
X117625818Y-168350873D01*
X117992841Y-167983850D01*
X118281210Y-167552276D01*
X118479842Y-167072736D01*
X118581103Y-166563660D01*
X118581103Y-166044610D01*
X118479842Y-165535534D01*
X118281210Y-165055994D01*
X117992841Y-164624420D01*
X117625818Y-164257397D01*
X117194244Y-163969028D01*
X116714704Y-163770396D01*
X116205628Y-163669135D01*
X115686578Y-163669135D01*
X115177502Y-163770396D01*
X114697962Y-163969028D01*
X114266388Y-164257397D01*
X113899365Y-164624420D01*
X113610996Y-165055994D01*
X113412364Y-165535534D01*
X113311103Y-166044610D01*
X113311103Y-166563660D01*
X113412364Y-167072736D01*
X113610996Y-167552276D01*
X113899365Y-167983850D01*
X114266388Y-168350873D01*
X114697962Y-168639242D01*
X114750249Y-168660900D01*
X109103800Y-168660900D01*
X109103800Y-156818000D01*
X129051000Y-156818000D01*
X129051000Y-168288000D01*
X167621000Y-168288000D01*
X167621000Y-156818000D01*
X129051000Y-156818000D01*
X109103800Y-156818000D01*
X109103800Y-149845101D01*
X109118446Y-149845101D01*
X109118446Y-150856607D01*
X109315781Y-151848678D01*
X109702868Y-152783189D01*
X110264831Y-153624226D01*
X110980074Y-154339469D01*
X111821111Y-154901432D01*
X112755622Y-155288519D01*
X113747693Y-155485854D01*
X114759199Y-155485854D01*
X115751270Y-155288519D01*
X116685781Y-154901432D01*
X117526818Y-154339469D01*
X118242061Y-153624226D01*
X118804024Y-152783189D01*
X119191111Y-151848678D01*
X119388446Y-150856607D01*
X119388446Y-149845101D01*
X119384238Y-149823941D01*
X120607350Y-149823941D01*
X120607350Y-150835447D01*
X120804685Y-151827518D01*
X121191772Y-152762029D01*
X121753735Y-153603066D01*
X122468978Y-154318309D01*
X123310015Y-154880272D01*
X124244526Y-155267359D01*
X125236597Y-155464694D01*
X126248103Y-155464694D01*
X127240174Y-155267359D01*
X128174685Y-154880272D01*
X129015722Y-154318309D01*
X129730965Y-153603066D01*
X130292928Y-152762029D01*
X130680015Y-151827518D01*
X130877350Y-150835447D01*
X130877350Y-149845101D01*
X131948143Y-149845101D01*
X131948143Y-150856607D01*
X132145478Y-151848678D01*
X132532565Y-152783189D01*
X133094528Y-153624226D01*
X133809771Y-154339469D01*
X134650808Y-154901432D01*
X135585319Y-155288519D01*
X136577390Y-155485854D01*
X137588896Y-155485854D01*
X138580967Y-155288519D01*
X139515478Y-154901432D01*
X140356515Y-154339469D01*
X141071758Y-153624226D01*
X141633721Y-152783189D01*
X142020808Y-151848678D01*
X142218143Y-150856607D01*
X142218143Y-149866260D01*
X143415887Y-149866260D01*
X143415887Y-150877766D01*
X143613222Y-151869837D01*
X144000309Y-152804348D01*
X144562272Y-153645385D01*
X145277515Y-154360628D01*
X146118552Y-154922591D01*
X147053063Y-155309678D01*
X148045134Y-155507013D01*
X149056640Y-155507013D01*
X150048711Y-155309678D01*
X150983222Y-154922591D01*
X151824259Y-154360628D01*
X152539502Y-153645385D01*
X153101465Y-152804348D01*
X153488552Y-151869837D01*
X153685887Y-150877766D01*
X153685887Y-149866260D01*
X153681679Y-149845101D01*
X154820159Y-149845101D01*
X154820159Y-150856607D01*
X155017494Y-151848678D01*
X155404581Y-152783189D01*
X155966544Y-153624226D01*
X156681787Y-154339469D01*
X157522824Y-154901432D01*
X158457335Y-155288519D01*
X159449406Y-155485854D01*
X160460912Y-155485854D01*
X161452983Y-155288519D01*
X162387494Y-154901432D01*
X163228531Y-154339469D01*
X163943774Y-153624226D01*
X164505737Y-152783189D01*
X164892824Y-151848678D01*
X165090159Y-150856607D01*
X165090159Y-149845101D01*
X165085951Y-149823941D01*
X166203271Y-149823941D01*
X166203271Y-150835447D01*
X166400606Y-151827518D01*
X166787693Y-152762029D01*
X167349656Y-153603066D01*
X168064899Y-154318309D01*
X168905936Y-154880272D01*
X169840447Y-155267359D01*
X170832518Y-155464694D01*
X171844024Y-155464694D01*
X172836095Y-155267359D01*
X173770606Y-154880272D01*
X174611643Y-154318309D01*
X175326886Y-153603066D01*
X175888849Y-152762029D01*
X176275936Y-151827518D01*
X176473271Y-150835447D01*
X176473271Y-149823941D01*
X176275936Y-148831870D01*
X175888849Y-147897359D01*
X175326886Y-147056322D01*
X174611643Y-146341079D01*
X173770606Y-145779116D01*
X172836095Y-145392029D01*
X171844024Y-145194694D01*
X170832518Y-145194694D01*
X169840447Y-145392029D01*
X168905936Y-145779116D01*
X168064899Y-146341079D01*
X167349656Y-147056322D01*
X166787693Y-147897359D01*
X166400606Y-148831870D01*
X166203271Y-149823941D01*
X165085951Y-149823941D01*
X164892824Y-148853030D01*
X164505737Y-147918519D01*
X163943774Y-147077482D01*
X163228531Y-146362239D01*
X162387494Y-145800276D01*
X161452983Y-145413189D01*
X160460912Y-145215854D01*
X159449406Y-145215854D01*
X158457335Y-145413189D01*
X157522824Y-145800276D01*
X156681787Y-146362239D01*
X155966544Y-147077482D01*
X155404581Y-147918519D01*
X155017494Y-148853030D01*
X154820159Y-149845101D01*
X153681679Y-149845101D01*
X153488552Y-148874189D01*
X153101465Y-147939678D01*
X152539502Y-147098641D01*
X151824259Y-146383398D01*
X150983222Y-145821435D01*
X150048711Y-145434348D01*
X149056640Y-145237013D01*
X148045134Y-145237013D01*
X147053063Y-145434348D01*
X146118552Y-145821435D01*
X145277515Y-146383398D01*
X144562272Y-147098641D01*
X144000309Y-147939678D01*
X143613222Y-148874189D01*
X143415887Y-149866260D01*
X142218143Y-149866260D01*
X142218143Y-149845101D01*
X142020808Y-148853030D01*
X141633721Y-147918519D01*
X141071758Y-147077482D01*
X140356515Y-146362239D01*
X139515478Y-145800276D01*
X138580967Y-145413189D01*
X137588896Y-145215854D01*
X136577390Y-145215854D01*
X135585319Y-145413189D01*
X134650808Y-145800276D01*
X133809771Y-146362239D01*
X133094528Y-147077482D01*
X132532565Y-147918519D01*
X132145478Y-148853030D01*
X131948143Y-149845101D01*
X130877350Y-149845101D01*
X130877350Y-149823941D01*
X130680015Y-148831870D01*
X130292928Y-147897359D01*
X129730965Y-147056322D01*
X129015722Y-146341079D01*
X128174685Y-145779116D01*
X127240174Y-145392029D01*
X126248103Y-145194694D01*
X125236597Y-145194694D01*
X124244526Y-145392029D01*
X123310015Y-145779116D01*
X122468978Y-146341079D01*
X121753735Y-147056322D01*
X121191772Y-147897359D01*
X120804685Y-148831870D01*
X120607350Y-149823941D01*
X119384238Y-149823941D01*
X119191111Y-148853030D01*
X118804024Y-147918519D01*
X118242061Y-147077482D01*
X117526818Y-146362239D01*
X116685781Y-145800276D01*
X115751270Y-145413189D01*
X114759199Y-145215854D01*
X113747693Y-145215854D01*
X112755622Y-145413189D01*
X111821111Y-145800276D01*
X110980074Y-146362239D01*
X110264831Y-147077482D01*
X109702868Y-147918519D01*
X109315781Y-148853030D01*
X109118446Y-149845101D01*
X109103800Y-149845101D01*
X109103800Y-129321647D01*
X109203078Y-129321647D01*
X109203078Y-130333153D01*
X109400413Y-131325224D01*
X109787500Y-132259735D01*
X110349463Y-133100772D01*
X111064706Y-133816015D01*
X111905743Y-134377978D01*
X112840254Y-134765065D01*
X113832325Y-134962400D01*
X114843831Y-134962400D01*
X115835902Y-134765065D01*
X116770413Y-134377978D01*
X117611450Y-133816015D01*
X118326693Y-133100772D01*
X118888656Y-132259735D01*
X119275743Y-131325224D01*
X119473078Y-130333153D01*
X119473078Y-129321647D01*
X119404435Y-128976555D01*
X129651931Y-128976555D01*
X129651931Y-130382027D01*
X129926125Y-131760494D01*
X130463976Y-133058981D01*
X131244815Y-134227588D01*
X132238634Y-135221407D01*
X133407241Y-136002246D01*
X134705728Y-136540097D01*
X136084195Y-136814291D01*
X137489667Y-136814291D01*
X138868134Y-136540097D01*
X140166621Y-136002246D01*
X141335228Y-135221407D01*
X142329047Y-134227588D01*
X143109886Y-133058981D01*
X143647737Y-131760494D01*
X143921931Y-130382027D01*
X143921931Y-128997714D01*
X150873603Y-128997714D01*
X150873603Y-130403186D01*
X151147797Y-131781653D01*
X151685648Y-133080140D01*
X152466487Y-134248747D01*
X153460306Y-135242566D01*
X154628913Y-136023405D01*
X155927400Y-136561256D01*
X157305867Y-136835450D01*
X158711339Y-136835450D01*
X160089806Y-136561256D01*
X161388293Y-136023405D01*
X162556900Y-135242566D01*
X163550719Y-134248747D01*
X164331558Y-133080140D01*
X164869409Y-131781653D01*
X165143603Y-130403186D01*
X165143603Y-129272029D01*
X166568525Y-129272029D01*
X166568525Y-130086553D01*
X166727431Y-130885426D01*
X167039136Y-131637948D01*
X167491661Y-132315200D01*
X168067616Y-132891155D01*
X168744868Y-133343680D01*
X169497390Y-133655385D01*
X170296263Y-133814291D01*
X171110787Y-133814291D01*
X171909660Y-133655385D01*
X172662182Y-133343680D01*
X173339434Y-132891155D01*
X173915389Y-132315200D01*
X174367914Y-131637948D01*
X174679619Y-130885426D01*
X174838525Y-130086553D01*
X174838525Y-129293558D01*
X176345843Y-129293558D01*
X176345843Y-130403556D01*
X176562393Y-131492226D01*
X176987171Y-132517730D01*
X177603853Y-133440660D01*
X178388740Y-134225547D01*
X179311670Y-134842229D01*
X180337174Y-135267007D01*
X181425844Y-135483557D01*
X182535842Y-135483557D01*
X183624512Y-135267007D01*
X184650016Y-134842229D01*
X185572946Y-134225547D01*
X186357833Y-133440660D01*
X186974515Y-132517730D01*
X187399293Y-131492226D01*
X187615843Y-130403556D01*
X187615843Y-129293558D01*
X187399293Y-128204888D01*
X186974515Y-127179384D01*
X186357833Y-126256454D01*
X185572946Y-125471567D01*
X184650016Y-124854885D01*
X183624512Y-124430107D01*
X182535842Y-124213557D01*
X181425844Y-124213557D01*
X180337174Y-124430107D01*
X179311670Y-124854885D01*
X178388740Y-125471567D01*
X177603853Y-126256454D01*
X176987171Y-127179384D01*
X176562393Y-128204888D01*
X176345843Y-129293558D01*
X174838525Y-129293558D01*
X174838525Y-129272029D01*
X174679619Y-128473156D01*
X174367914Y-127720634D01*
X173915389Y-127043382D01*
X173339434Y-126467427D01*
X172662182Y-126014902D01*
X171909660Y-125703197D01*
X171110787Y-125544291D01*
X170296263Y-125544291D01*
X169497390Y-125703197D01*
X168744868Y-126014902D01*
X168067616Y-126467427D01*
X167491661Y-127043382D01*
X167039136Y-127720634D01*
X166727431Y-128473156D01*
X166568525Y-129272029D01*
X165143603Y-129272029D01*
X165143603Y-128997714D01*
X164869409Y-127619247D01*
X164331558Y-126320760D01*
X163550719Y-125152153D01*
X162556900Y-124158334D01*
X161388293Y-123377495D01*
X160089806Y-122839644D01*
X158711339Y-122565450D01*
X157305867Y-122565450D01*
X155927400Y-122839644D01*
X154628913Y-123377495D01*
X153460306Y-124158334D01*
X152466487Y-125152153D01*
X151685648Y-126320760D01*
X151147797Y-127619247D01*
X150873603Y-128997714D01*
X143921931Y-128997714D01*
X143921931Y-128976555D01*
X143647737Y-127598088D01*
X143109886Y-126299601D01*
X142329047Y-125130994D01*
X141335228Y-124137175D01*
X140166621Y-123356336D01*
X138868134Y-122818485D01*
X137489667Y-122544291D01*
X136084195Y-122544291D01*
X134705728Y-122818485D01*
X133407241Y-123356336D01*
X132238634Y-124137175D01*
X131244815Y-125130994D01*
X130463976Y-126299601D01*
X129926125Y-127598088D01*
X129651931Y-128976555D01*
X119404435Y-128976555D01*
X119275743Y-128329576D01*
X118888656Y-127395065D01*
X118326693Y-126554028D01*
X117611450Y-125838785D01*
X116770413Y-125276822D01*
X115835902Y-124889735D01*
X114843831Y-124692400D01*
X113832325Y-124692400D01*
X112840254Y-124889735D01*
X111905743Y-125276822D01*
X111064706Y-125838785D01*
X110349463Y-126554028D01*
X109787500Y-127395065D01*
X109400413Y-128329576D01*
X109203078Y-129321647D01*
X109103800Y-129321647D01*
X109103800Y-105349407D01*
X109181921Y-105349407D01*
X109181921Y-106360913D01*
X109379256Y-107352984D01*
X109766343Y-108287495D01*
X110328306Y-109128532D01*
X111043549Y-109843775D01*
X111884586Y-110405738D01*
X112819097Y-110792825D01*
X113811168Y-110990160D01*
X114822674Y-110990160D01*
X115814745Y-110792825D01*
X116749256Y-110405738D01*
X117590293Y-109843775D01*
X118305536Y-109128532D01*
X118867499Y-108287495D01*
X119254586Y-107352984D01*
X119451921Y-106360913D01*
X119451921Y-105349407D01*
X119447821Y-105328791D01*
X132323087Y-105328791D01*
X132323087Y-106212259D01*
X132495443Y-107078751D01*
X132833532Y-107894969D01*
X133324360Y-108629546D01*
X133949066Y-109254252D01*
X134683643Y-109745080D01*
X135499861Y-110083169D01*
X136366353Y-110255525D01*
X137249821Y-110255525D01*
X138116313Y-110083169D01*
X138932531Y-109745080D01*
X139667108Y-109254252D01*
X140291814Y-108629546D01*
X140782642Y-107894969D01*
X141120731Y-107078751D01*
X141293087Y-106212259D01*
X141293087Y-105328791D01*
X141203294Y-104877368D01*
X150873603Y-104877368D01*
X150873603Y-106282840D01*
X151147797Y-107661307D01*
X151685648Y-108959794D01*
X152466487Y-110128401D01*
X153460306Y-111122220D01*
X154628913Y-111903059D01*
X155927400Y-112440910D01*
X157305867Y-112715104D01*
X158711339Y-112715104D01*
X160089806Y-112440910D01*
X161388293Y-111903059D01*
X162556900Y-111122220D01*
X163550719Y-110128401D01*
X164331558Y-108959794D01*
X164869409Y-107661307D01*
X165143603Y-106282840D01*
X165143603Y-104898524D01*
X173618668Y-104898524D01*
X173618668Y-106303996D01*
X173892862Y-107682463D01*
X174430713Y-108980950D01*
X175211552Y-110149557D01*
X176205371Y-111143376D01*
X177373978Y-111924215D01*
X178672465Y-112462066D01*
X180050932Y-112736260D01*
X181456404Y-112736260D01*
X182834871Y-112462066D01*
X184133358Y-111924215D01*
X185301965Y-111143376D01*
X186295784Y-110149557D01*
X187076623Y-108980950D01*
X187614474Y-107682463D01*
X187888668Y-106303996D01*
X187888668Y-104898524D01*
X187614474Y-103520057D01*
X187076623Y-102221570D01*
X186295784Y-101052963D01*
X185301965Y-100059144D01*
X184133358Y-99278305D01*
X182834871Y-98740454D01*
X181456404Y-98466260D01*
X180050932Y-98466260D01*
X178672465Y-98740454D01*
X177373978Y-99278305D01*
X176205371Y-100059144D01*
X175211552Y-101052963D01*
X174430713Y-102221570D01*
X173892862Y-103520057D01*
X173618668Y-104898524D01*
X165143603Y-104898524D01*
X165143603Y-104877368D01*
X164869409Y-103498901D01*
X164331558Y-102200414D01*
X163550719Y-101031807D01*
X162556900Y-100037988D01*
X161388293Y-99257149D01*
X160089806Y-98719298D01*
X158711339Y-98445104D01*
X157305867Y-98445104D01*
X155927400Y-98719298D01*
X154628913Y-99257149D01*
X153460306Y-100037988D01*
X152466487Y-101031807D01*
X151685648Y-102200414D01*
X151147797Y-103498901D01*
X150873603Y-104877368D01*
X141203294Y-104877368D01*
X141120731Y-104462299D01*
X140782642Y-103646081D01*
X140291814Y-102911504D01*
X139667108Y-102286798D01*
X138932531Y-101795970D01*
X138116313Y-101457881D01*
X137249821Y-101285525D01*
X136366353Y-101285525D01*
X135499861Y-101457881D01*
X134683643Y-101795970D01*
X133949066Y-102286798D01*
X133324360Y-102911504D01*
X132833532Y-103646081D01*
X132495443Y-104462299D01*
X132323087Y-105328791D01*
X119447821Y-105328791D01*
X119254586Y-104357336D01*
X118867499Y-103422825D01*
X118305536Y-102581788D01*
X117590293Y-101866545D01*
X116749256Y-101304582D01*
X115814745Y-100917495D01*
X114822674Y-100720160D01*
X113811168Y-100720160D01*
X112819097Y-100917495D01*
X111884586Y-101304582D01*
X111043549Y-101866545D01*
X110328306Y-102581788D01*
X109766343Y-103422825D01*
X109379256Y-104357336D01*
X109181921Y-105349407D01*
X109103800Y-105349407D01*
X109103800Y-81652222D01*
X109160762Y-81652222D01*
X109160762Y-82663728D01*
X109358097Y-83655799D01*
X109745184Y-84590310D01*
X110307147Y-85431347D01*
X111022390Y-86146590D01*
X111863427Y-86708553D01*
X112797938Y-87095640D01*
X113790009Y-87292975D01*
X114801515Y-87292975D01*
X115793586Y-87095640D01*
X116728097Y-86708553D01*
X117569134Y-86146590D01*
X118284377Y-85431347D01*
X118846340Y-84590310D01*
X119233427Y-83655799D01*
X119430762Y-82663728D01*
X119430762Y-81695082D01*
X132323087Y-81695082D01*
X132323087Y-82578550D01*
X132495443Y-83445042D01*
X132833532Y-84261260D01*
X133324360Y-84995837D01*
X133949066Y-85620543D01*
X134683643Y-86111371D01*
X135499861Y-86449460D01*
X136366353Y-86621816D01*
X137249821Y-86621816D01*
X138116313Y-86449460D01*
X138932531Y-86111371D01*
X139667108Y-85620543D01*
X140291814Y-84995837D01*
X140782642Y-84261260D01*
X141120731Y-83445042D01*
X141293087Y-82578550D01*
X141293087Y-81695082D01*
X141224337Y-81349449D01*
X150894762Y-81349449D01*
X150894762Y-82754921D01*
X151168956Y-84133388D01*
X151706807Y-85431875D01*
X152487646Y-86600482D01*
X153481465Y-87594301D01*
X154650072Y-88375140D01*
X155948559Y-88912991D01*
X157327026Y-89187185D01*
X158732498Y-89187185D01*
X160110965Y-88912991D01*
X161409452Y-88375140D01*
X162578059Y-87594301D01*
X163571878Y-86600482D01*
X164352717Y-85431875D01*
X164890568Y-84133388D01*
X165164762Y-82754921D01*
X165164762Y-81349449D01*
X165160554Y-81328289D01*
X173618668Y-81328289D01*
X173618668Y-82733761D01*
X173892862Y-84112228D01*
X174430713Y-85410715D01*
X175211552Y-86579322D01*
X176205371Y-87573141D01*
X177373978Y-88353980D01*
X178672465Y-88891831D01*
X180050932Y-89166025D01*
X181456404Y-89166025D01*
X182834871Y-88891831D01*
X184133358Y-88353980D01*
X185301965Y-87573141D01*
X186295784Y-86579322D01*
X187076623Y-85410715D01*
X187614474Y-84112228D01*
X187888668Y-82733761D01*
X187888668Y-81328289D01*
X187614474Y-79949822D01*
X187076623Y-78651335D01*
X186295784Y-77482728D01*
X185301965Y-76488909D01*
X184133358Y-75708070D01*
X182834871Y-75170219D01*
X181456404Y-74896025D01*
X180050932Y-74896025D01*
X178672465Y-75170219D01*
X177373978Y-75708070D01*
X176205371Y-76488909D01*
X175211552Y-77482728D01*
X174430713Y-78651335D01*
X173892862Y-79949822D01*
X173618668Y-81328289D01*
X165160554Y-81328289D01*
X164890568Y-79970982D01*
X164352717Y-78672495D01*
X163571878Y-77503888D01*
X162578059Y-76510069D01*
X161409452Y-75729230D01*
X160110965Y-75191379D01*
X158732498Y-74917185D01*
X157327026Y-74917185D01*
X155948559Y-75191379D01*
X154650072Y-75729230D01*
X153481465Y-76510069D01*
X152487646Y-77503888D01*
X151706807Y-78672495D01*
X151168956Y-79970982D01*
X150894762Y-81349449D01*
X141224337Y-81349449D01*
X141120731Y-80828590D01*
X140782642Y-80012372D01*
X140291814Y-79277795D01*
X139667108Y-78653089D01*
X138932531Y-78162261D01*
X138116313Y-77824172D01*
X137249821Y-77651816D01*
X136366353Y-77651816D01*
X135499861Y-77824172D01*
X134683643Y-78162261D01*
X133949066Y-78653089D01*
X133324360Y-79277795D01*
X132833532Y-80012372D01*
X132495443Y-80828590D01*
X132323087Y-81695082D01*
X119430762Y-81695082D01*
X119430762Y-81652222D01*
X119233427Y-80660151D01*
X118846340Y-79725640D01*
X118284377Y-78884603D01*
X117569134Y-78169360D01*
X116728097Y-77607397D01*
X115793586Y-77220310D01*
X114801515Y-77022975D01*
X113790009Y-77022975D01*
X112797938Y-77220310D01*
X111863427Y-77607397D01*
X111022390Y-78169360D01*
X110307147Y-78884603D01*
X109745184Y-79725640D01*
X109358097Y-80660151D01*
X109160762Y-81652222D01*
X109103800Y-81652222D01*
X109103800Y-57701138D01*
X109181921Y-57701138D01*
X109181921Y-58712644D01*
X109379256Y-59704715D01*
X109766343Y-60639226D01*
X110328306Y-61480263D01*
X111043549Y-62195506D01*
X111884586Y-62757469D01*
X112819097Y-63144556D01*
X113811168Y-63341891D01*
X114822674Y-63341891D01*
X115814745Y-63144556D01*
X116749256Y-62757469D01*
X117590293Y-62195506D01*
X118305536Y-61480263D01*
X118867499Y-60639226D01*
X119254586Y-59704715D01*
X119451921Y-58712644D01*
X119451921Y-57722841D01*
X132344246Y-57722841D01*
X132344246Y-58606309D01*
X132516602Y-59472801D01*
X132854691Y-60289019D01*
X133345519Y-61023596D01*
X133970225Y-61648302D01*
X134704802Y-62139130D01*
X135521020Y-62477219D01*
X136387512Y-62649575D01*
X137270980Y-62649575D01*
X138137472Y-62477219D01*
X138953690Y-62139130D01*
X139688267Y-61648302D01*
X140312973Y-61023596D01*
X140803801Y-60289019D01*
X141141890Y-59472801D01*
X141314246Y-58606309D01*
X141314246Y-57722841D01*
X141228661Y-57292574D01*
X150873603Y-57292574D01*
X150873603Y-58698046D01*
X151147797Y-60076513D01*
X151685648Y-61375000D01*
X152466487Y-62543607D01*
X153460306Y-63537426D01*
X154628913Y-64318265D01*
X155927400Y-64856116D01*
X157305867Y-65130310D01*
X158711339Y-65130310D01*
X160089806Y-64856116D01*
X161388293Y-64318265D01*
X162556900Y-63537426D01*
X163550719Y-62543607D01*
X164331558Y-61375000D01*
X164869409Y-60076513D01*
X165143603Y-58698046D01*
X165143603Y-57313733D01*
X173618668Y-57313733D01*
X173618668Y-58719205D01*
X173892862Y-60097672D01*
X174430713Y-61396159D01*
X175211552Y-62564766D01*
X176205371Y-63558585D01*
X177373978Y-64339424D01*
X178672465Y-64877275D01*
X180050932Y-65151469D01*
X181456404Y-65151469D01*
X182834871Y-64877275D01*
X184133358Y-64339424D01*
X185301965Y-63558585D01*
X186295784Y-62564766D01*
X187076623Y-61396159D01*
X187614474Y-60097672D01*
X187888668Y-58719205D01*
X187888668Y-57313733D01*
X187614474Y-55935266D01*
X187076623Y-54636779D01*
X186295784Y-53468172D01*
X185301965Y-52474353D01*
X184133358Y-51693514D01*
X182834871Y-51155663D01*
X181456404Y-50881469D01*
X180050932Y-50881469D01*
X178672465Y-51155663D01*
X177373978Y-51693514D01*
X176205371Y-52474353D01*
X175211552Y-53468172D01*
X174430713Y-54636779D01*
X173892862Y-55935266D01*
X173618668Y-57313733D01*
X165143603Y-57313733D01*
X165143603Y-57292574D01*
X164869409Y-55914107D01*
X164331558Y-54615620D01*
X163550719Y-53447013D01*
X162556900Y-52453194D01*
X161388293Y-51672355D01*
X160089806Y-51134504D01*
X158711339Y-50860310D01*
X157305867Y-50860310D01*
X155927400Y-51134504D01*
X154628913Y-51672355D01*
X153460306Y-52453194D01*
X152466487Y-53447013D01*
X151685648Y-54615620D01*
X151147797Y-55914107D01*
X150873603Y-57292574D01*
X141228661Y-57292574D01*
X141141890Y-56856349D01*
X140803801Y-56040131D01*
X140312973Y-55305554D01*
X139688267Y-54680848D01*
X138953690Y-54190020D01*
X138137472Y-53851931D01*
X137270980Y-53679575D01*
X136387512Y-53679575D01*
X135521020Y-53851931D01*
X134704802Y-54190020D01*
X133970225Y-54680848D01*
X133345519Y-55305554D01*
X132854691Y-56040131D01*
X132516602Y-56856349D01*
X132344246Y-57722841D01*
X119451921Y-57722841D01*
X119451921Y-57701138D01*
X119254586Y-56709067D01*
X118867499Y-55774556D01*
X118305536Y-54933519D01*
X117590293Y-54218276D01*
X116749256Y-53656313D01*
X115814745Y-53269226D01*
X114822674Y-53071891D01*
X113811168Y-53071891D01*
X112819097Y-53269226D01*
X111884586Y-53656313D01*
X111043549Y-54218276D01*
X110328306Y-54933519D01*
X109766343Y-55774556D01*
X109379256Y-56709067D01*
X109181921Y-57701138D01*
X109103800Y-57701138D01*
X109103800Y-41346300D01*
X114907584Y-41346300D01*
X114676802Y-41441893D01*
X114676802Y-41441893D01*
G37*
X114676802Y-41441893D02*
X114245228Y-41730262D01*
X113878205Y-42097285D01*
X113589836Y-42528859D01*
X113391204Y-43008399D01*
X113289943Y-43517475D01*
X113289943Y-44036525D01*
X113391204Y-44545601D01*
X113589836Y-45025141D01*
X113878205Y-45456715D01*
X114245228Y-45823738D01*
X114676802Y-46112107D01*
X115156342Y-46310739D01*
X115665418Y-46412000D01*
X116184468Y-46412000D01*
X116693544Y-46310739D01*
X117173084Y-46112107D01*
X117604658Y-45823738D01*
X117971681Y-45456715D01*
X118260050Y-45025141D01*
X118458682Y-44545601D01*
X118559943Y-44036525D01*
X118559943Y-43517475D01*
X118458682Y-43008399D01*
X118260050Y-42528859D01*
X117971681Y-42097285D01*
X117604658Y-41730262D01*
X117173084Y-41441893D01*
X116942302Y-41346300D01*
X180993405Y-41346300D01*
X180711546Y-41463050D01*
X180279972Y-41751419D01*
X179912949Y-42118442D01*
X179624580Y-42550016D01*
X179425948Y-43029556D01*
X179324687Y-43538632D01*
X179324687Y-44057682D01*
X179425948Y-44566758D01*
X179624580Y-45046298D01*
X179912949Y-45477872D01*
X180279972Y-45844895D01*
X180711546Y-46133264D01*
X181191086Y-46331896D01*
X181700162Y-46433157D01*
X182219212Y-46433157D01*
X182728288Y-46331896D01*
X183207828Y-46133264D01*
X183639402Y-45844895D01*
X184006425Y-45477872D01*
X184294794Y-45046298D01*
X184493426Y-44566758D01*
X184594687Y-44057682D01*
X184594687Y-43538632D01*
X184493426Y-43029556D01*
X184294794Y-42550016D01*
X184006425Y-42118442D01*
X183639402Y-41751419D01*
X183207828Y-41463050D01*
X182925969Y-41346300D01*
X187898400Y-41346300D01*
X187898401Y-149716079D01*
X187722521Y-148831870D01*
X187335434Y-147897359D01*
X186773471Y-147056322D01*
X186058228Y-146341079D01*
X185217191Y-145779116D01*
X184282680Y-145392029D01*
X183290609Y-145194694D01*
X182279103Y-145194694D01*
X181287032Y-145392029D01*
X180352521Y-145779116D01*
X179511484Y-146341079D01*
X178796241Y-147056322D01*
X178234278Y-147897359D01*
X177847191Y-148831870D01*
X177649856Y-149823941D01*
X177649856Y-150835447D01*
X177847191Y-151827518D01*
X178234278Y-152762029D01*
X178796241Y-153603066D01*
X179511484Y-154318309D01*
X180352521Y-154880272D01*
X181287032Y-155267359D01*
X182279103Y-155464694D01*
X183290609Y-155464694D01*
X184282680Y-155267359D01*
X185217191Y-154880272D01*
X186058228Y-154318309D01*
X186773471Y-153603066D01*
X187335434Y-152762029D01*
X187722521Y-151827518D01*
X187898401Y-150943309D01*
X187898401Y-168660900D01*
X183125622Y-168660900D01*
X183228984Y-168618086D01*
X183660558Y-168329717D01*
X184027581Y-167962694D01*
X184315950Y-167531120D01*
X184514582Y-167051580D01*
X184615843Y-166542504D01*
X184615843Y-166023454D01*
X184514582Y-165514378D01*
X184315950Y-165034838D01*
X184027581Y-164603264D01*
X183660558Y-164236241D01*
X183228984Y-163947872D01*
X182749444Y-163749240D01*
X182240368Y-163647979D01*
X181721318Y-163647979D01*
X181212242Y-163749240D01*
X180732702Y-163947872D01*
X180301128Y-164236241D01*
X179934105Y-164603264D01*
X179645736Y-165034838D01*
X179447104Y-165514378D01*
X179345843Y-166023454D01*
X179345843Y-166542504D01*
X179447104Y-167051580D01*
X179645736Y-167531120D01*
X179934105Y-167962694D01*
X180301128Y-168329717D01*
X180732702Y-168618086D01*
X180836064Y-168660900D01*
X117141957Y-168660900D01*
X117194244Y-168639242D01*
X117625818Y-168350873D01*
X117992841Y-167983850D01*
X118281210Y-167552276D01*
X118479842Y-167072736D01*
X118581103Y-166563660D01*
X118581103Y-166044610D01*
X118479842Y-165535534D01*
X118281210Y-165055994D01*
X117992841Y-164624420D01*
X117625818Y-164257397D01*
X117194244Y-163969028D01*
X116714704Y-163770396D01*
X116205628Y-163669135D01*
X115686578Y-163669135D01*
X115177502Y-163770396D01*
X114697962Y-163969028D01*
X114266388Y-164257397D01*
X113899365Y-164624420D01*
X113610996Y-165055994D01*
X113412364Y-165535534D01*
X113311103Y-166044610D01*
X113311103Y-166563660D01*
X113412364Y-167072736D01*
X113610996Y-167552276D01*
X113899365Y-167983850D01*
X114266388Y-168350873D01*
X114697962Y-168639242D01*
X114750249Y-168660900D01*
X109103800Y-168660900D01*
X109103800Y-156818000D01*
X129051000Y-156818000D01*
X129051000Y-168288000D01*
X167621000Y-168288000D01*
X167621000Y-156818000D01*
X129051000Y-156818000D01*
X109103800Y-156818000D01*
X109103800Y-149845101D01*
X109118446Y-149845101D01*
X109118446Y-150856607D01*
X109315781Y-151848678D01*
X109702868Y-152783189D01*
X110264831Y-153624226D01*
X110980074Y-154339469D01*
X111821111Y-154901432D01*
X112755622Y-155288519D01*
X113747693Y-155485854D01*
X114759199Y-155485854D01*
X115751270Y-155288519D01*
X116685781Y-154901432D01*
X117526818Y-154339469D01*
X118242061Y-153624226D01*
X118804024Y-152783189D01*
X119191111Y-151848678D01*
X119388446Y-150856607D01*
X119388446Y-149845101D01*
X119384238Y-149823941D01*
X120607350Y-149823941D01*
X120607350Y-150835447D01*
X120804685Y-151827518D01*
X121191772Y-152762029D01*
X121753735Y-153603066D01*
X122468978Y-154318309D01*
X123310015Y-154880272D01*
X124244526Y-155267359D01*
X125236597Y-155464694D01*
X126248103Y-155464694D01*
X127240174Y-155267359D01*
X128174685Y-154880272D01*
X129015722Y-154318309D01*
X129730965Y-153603066D01*
X130292928Y-152762029D01*
X130680015Y-151827518D01*
X130877350Y-150835447D01*
X130877350Y-149845101D01*
X131948143Y-149845101D01*
X131948143Y-150856607D01*
X132145478Y-151848678D01*
X132532565Y-152783189D01*
X133094528Y-153624226D01*
X133809771Y-154339469D01*
X134650808Y-154901432D01*
X135585319Y-155288519D01*
X136577390Y-155485854D01*
X137588896Y-155485854D01*
X138580967Y-155288519D01*
X139515478Y-154901432D01*
X140356515Y-154339469D01*
X141071758Y-153624226D01*
X141633721Y-152783189D01*
X142020808Y-151848678D01*
X142218143Y-150856607D01*
X142218143Y-149866260D01*
X143415887Y-149866260D01*
X143415887Y-150877766D01*
X143613222Y-151869837D01*
X144000309Y-152804348D01*
X144562272Y-153645385D01*
X145277515Y-154360628D01*
X146118552Y-154922591D01*
X147053063Y-155309678D01*
X148045134Y-155507013D01*
X149056640Y-155507013D01*
X150048711Y-155309678D01*
X150983222Y-154922591D01*
X151824259Y-154360628D01*
X152539502Y-153645385D01*
X153101465Y-152804348D01*
X153488552Y-151869837D01*
X153685887Y-150877766D01*
X153685887Y-149866260D01*
X153681679Y-149845101D01*
X154820159Y-149845101D01*
X154820159Y-150856607D01*
X155017494Y-151848678D01*
X155404581Y-152783189D01*
X155966544Y-153624226D01*
X156681787Y-154339469D01*
X157522824Y-154901432D01*
X158457335Y-155288519D01*
X159449406Y-155485854D01*
X160460912Y-155485854D01*
X161452983Y-155288519D01*
X162387494Y-154901432D01*
X163228531Y-154339469D01*
X163943774Y-153624226D01*
X164505737Y-152783189D01*
X164892824Y-151848678D01*
X165090159Y-150856607D01*
X165090159Y-149845101D01*
X165085951Y-149823941D01*
X166203271Y-149823941D01*
X166203271Y-150835447D01*
X166400606Y-151827518D01*
X166787693Y-152762029D01*
X167349656Y-153603066D01*
X168064899Y-154318309D01*
X168905936Y-154880272D01*
X169840447Y-155267359D01*
X170832518Y-155464694D01*
X171844024Y-155464694D01*
X172836095Y-155267359D01*
X173770606Y-154880272D01*
X174611643Y-154318309D01*
X175326886Y-153603066D01*
X175888849Y-152762029D01*
X176275936Y-151827518D01*
X176473271Y-150835447D01*
X176473271Y-149823941D01*
X176275936Y-148831870D01*
X175888849Y-147897359D01*
X175326886Y-147056322D01*
X174611643Y-146341079D01*
X173770606Y-145779116D01*
X172836095Y-145392029D01*
X171844024Y-145194694D01*
X170832518Y-145194694D01*
X169840447Y-145392029D01*
X168905936Y-145779116D01*
X168064899Y-146341079D01*
X167349656Y-147056322D01*
X166787693Y-147897359D01*
X166400606Y-148831870D01*
X166203271Y-149823941D01*
X165085951Y-149823941D01*
X164892824Y-148853030D01*
X164505737Y-147918519D01*
X163943774Y-147077482D01*
X163228531Y-146362239D01*
X162387494Y-145800276D01*
X161452983Y-145413189D01*
X160460912Y-145215854D01*
X159449406Y-145215854D01*
X158457335Y-145413189D01*
X157522824Y-145800276D01*
X156681787Y-146362239D01*
X155966544Y-147077482D01*
X155404581Y-147918519D01*
X155017494Y-148853030D01*
X154820159Y-149845101D01*
X153681679Y-149845101D01*
X153488552Y-148874189D01*
X153101465Y-147939678D01*
X152539502Y-147098641D01*
X151824259Y-146383398D01*
X150983222Y-145821435D01*
X150048711Y-145434348D01*
X149056640Y-145237013D01*
X148045134Y-145237013D01*
X147053063Y-145434348D01*
X146118552Y-145821435D01*
X145277515Y-146383398D01*
X144562272Y-147098641D01*
X144000309Y-147939678D01*
X143613222Y-148874189D01*
X143415887Y-149866260D01*
X142218143Y-149866260D01*
X142218143Y-149845101D01*
X142020808Y-148853030D01*
X141633721Y-147918519D01*
X141071758Y-147077482D01*
X140356515Y-146362239D01*
X139515478Y-145800276D01*
X138580967Y-145413189D01*
X137588896Y-145215854D01*
X136577390Y-145215854D01*
X135585319Y-145413189D01*
X134650808Y-145800276D01*
X133809771Y-146362239D01*
X133094528Y-147077482D01*
X132532565Y-147918519D01*
X132145478Y-148853030D01*
X131948143Y-149845101D01*
X130877350Y-149845101D01*
X130877350Y-149823941D01*
X130680015Y-148831870D01*
X130292928Y-147897359D01*
X129730965Y-147056322D01*
X129015722Y-146341079D01*
X128174685Y-145779116D01*
X127240174Y-145392029D01*
X126248103Y-145194694D01*
X125236597Y-145194694D01*
X124244526Y-145392029D01*
X123310015Y-145779116D01*
X122468978Y-146341079D01*
X121753735Y-147056322D01*
X121191772Y-147897359D01*
X120804685Y-148831870D01*
X120607350Y-149823941D01*
X119384238Y-149823941D01*
X119191111Y-148853030D01*
X118804024Y-147918519D01*
X118242061Y-147077482D01*
X117526818Y-146362239D01*
X116685781Y-145800276D01*
X115751270Y-145413189D01*
X114759199Y-145215854D01*
X113747693Y-145215854D01*
X112755622Y-145413189D01*
X111821111Y-145800276D01*
X110980074Y-146362239D01*
X110264831Y-147077482D01*
X109702868Y-147918519D01*
X109315781Y-148853030D01*
X109118446Y-149845101D01*
X109103800Y-149845101D01*
X109103800Y-129321647D01*
X109203078Y-129321647D01*
X109203078Y-130333153D01*
X109400413Y-131325224D01*
X109787500Y-132259735D01*
X110349463Y-133100772D01*
X111064706Y-133816015D01*
X111905743Y-134377978D01*
X112840254Y-134765065D01*
X113832325Y-134962400D01*
X114843831Y-134962400D01*
X115835902Y-134765065D01*
X116770413Y-134377978D01*
X117611450Y-133816015D01*
X118326693Y-133100772D01*
X118888656Y-132259735D01*
X119275743Y-131325224D01*
X119473078Y-130333153D01*
X119473078Y-129321647D01*
X119404435Y-128976555D01*
X129651931Y-128976555D01*
X129651931Y-130382027D01*
X129926125Y-131760494D01*
X130463976Y-133058981D01*
X131244815Y-134227588D01*
X132238634Y-135221407D01*
X133407241Y-136002246D01*
X134705728Y-136540097D01*
X136084195Y-136814291D01*
X137489667Y-136814291D01*
X138868134Y-136540097D01*
X140166621Y-136002246D01*
X141335228Y-135221407D01*
X142329047Y-134227588D01*
X143109886Y-133058981D01*
X143647737Y-131760494D01*
X143921931Y-130382027D01*
X143921931Y-128997714D01*
X150873603Y-128997714D01*
X150873603Y-130403186D01*
X151147797Y-131781653D01*
X151685648Y-133080140D01*
X152466487Y-134248747D01*
X153460306Y-135242566D01*
X154628913Y-136023405D01*
X155927400Y-136561256D01*
X157305867Y-136835450D01*
X158711339Y-136835450D01*
X160089806Y-136561256D01*
X161388293Y-136023405D01*
X162556900Y-135242566D01*
X163550719Y-134248747D01*
X164331558Y-133080140D01*
X164869409Y-131781653D01*
X165143603Y-130403186D01*
X165143603Y-129272029D01*
X166568525Y-129272029D01*
X166568525Y-130086553D01*
X166727431Y-130885426D01*
X167039136Y-131637948D01*
X167491661Y-132315200D01*
X168067616Y-132891155D01*
X168744868Y-133343680D01*
X169497390Y-133655385D01*
X170296263Y-133814291D01*
X171110787Y-133814291D01*
X171909660Y-133655385D01*
X172662182Y-133343680D01*
X173339434Y-132891155D01*
X173915389Y-132315200D01*
X174367914Y-131637948D01*
X174679619Y-130885426D01*
X174838525Y-130086553D01*
X174838525Y-129293558D01*
X176345843Y-129293558D01*
X176345843Y-130403556D01*
X176562393Y-131492226D01*
X176987171Y-132517730D01*
X177603853Y-133440660D01*
X178388740Y-134225547D01*
X179311670Y-134842229D01*
X180337174Y-135267007D01*
X181425844Y-135483557D01*
X182535842Y-135483557D01*
X183624512Y-135267007D01*
X184650016Y-134842229D01*
X185572946Y-134225547D01*
X186357833Y-133440660D01*
X186974515Y-132517730D01*
X187399293Y-131492226D01*
X187615843Y-130403556D01*
X187615843Y-129293558D01*
X187399293Y-128204888D01*
X186974515Y-127179384D01*
X186357833Y-126256454D01*
X185572946Y-125471567D01*
X184650016Y-124854885D01*
X183624512Y-124430107D01*
X182535842Y-124213557D01*
X181425844Y-124213557D01*
X180337174Y-124430107D01*
X179311670Y-124854885D01*
X178388740Y-125471567D01*
X177603853Y-126256454D01*
X176987171Y-127179384D01*
X176562393Y-128204888D01*
X176345843Y-129293558D01*
X174838525Y-129293558D01*
X174838525Y-129272029D01*
X174679619Y-128473156D01*
X174367914Y-127720634D01*
X173915389Y-127043382D01*
X173339434Y-126467427D01*
X172662182Y-126014902D01*
X171909660Y-125703197D01*
X171110787Y-125544291D01*
X170296263Y-125544291D01*
X169497390Y-125703197D01*
X168744868Y-126014902D01*
X168067616Y-126467427D01*
X167491661Y-127043382D01*
X167039136Y-127720634D01*
X166727431Y-128473156D01*
X166568525Y-129272029D01*
X165143603Y-129272029D01*
X165143603Y-128997714D01*
X164869409Y-127619247D01*
X164331558Y-126320760D01*
X163550719Y-125152153D01*
X162556900Y-124158334D01*
X161388293Y-123377495D01*
X160089806Y-122839644D01*
X158711339Y-122565450D01*
X157305867Y-122565450D01*
X155927400Y-122839644D01*
X154628913Y-123377495D01*
X153460306Y-124158334D01*
X152466487Y-125152153D01*
X151685648Y-126320760D01*
X151147797Y-127619247D01*
X150873603Y-128997714D01*
X143921931Y-128997714D01*
X143921931Y-128976555D01*
X143647737Y-127598088D01*
X143109886Y-126299601D01*
X142329047Y-125130994D01*
X141335228Y-124137175D01*
X140166621Y-123356336D01*
X138868134Y-122818485D01*
X137489667Y-122544291D01*
X136084195Y-122544291D01*
X134705728Y-122818485D01*
X133407241Y-123356336D01*
X132238634Y-124137175D01*
X131244815Y-125130994D01*
X130463976Y-126299601D01*
X129926125Y-127598088D01*
X129651931Y-128976555D01*
X119404435Y-128976555D01*
X119275743Y-128329576D01*
X118888656Y-127395065D01*
X118326693Y-126554028D01*
X117611450Y-125838785D01*
X116770413Y-125276822D01*
X115835902Y-124889735D01*
X114843831Y-124692400D01*
X113832325Y-124692400D01*
X112840254Y-124889735D01*
X111905743Y-125276822D01*
X111064706Y-125838785D01*
X110349463Y-126554028D01*
X109787500Y-127395065D01*
X109400413Y-128329576D01*
X109203078Y-129321647D01*
X109103800Y-129321647D01*
X109103800Y-105349407D01*
X109181921Y-105349407D01*
X109181921Y-106360913D01*
X109379256Y-107352984D01*
X109766343Y-108287495D01*
X110328306Y-109128532D01*
X111043549Y-109843775D01*
X111884586Y-110405738D01*
X112819097Y-110792825D01*
X113811168Y-110990160D01*
X114822674Y-110990160D01*
X115814745Y-110792825D01*
X116749256Y-110405738D01*
X117590293Y-109843775D01*
X118305536Y-109128532D01*
X118867499Y-108287495D01*
X119254586Y-107352984D01*
X119451921Y-106360913D01*
X119451921Y-105349407D01*
X119447821Y-105328791D01*
X132323087Y-105328791D01*
X132323087Y-106212259D01*
X132495443Y-107078751D01*
X132833532Y-107894969D01*
X133324360Y-108629546D01*
X133949066Y-109254252D01*
X134683643Y-109745080D01*
X135499861Y-110083169D01*
X136366353Y-110255525D01*
X137249821Y-110255525D01*
X138116313Y-110083169D01*
X138932531Y-109745080D01*
X139667108Y-109254252D01*
X140291814Y-108629546D01*
X140782642Y-107894969D01*
X141120731Y-107078751D01*
X141293087Y-106212259D01*
X141293087Y-105328791D01*
X141203294Y-104877368D01*
X150873603Y-104877368D01*
X150873603Y-106282840D01*
X151147797Y-107661307D01*
X151685648Y-108959794D01*
X152466487Y-110128401D01*
X153460306Y-111122220D01*
X154628913Y-111903059D01*
X155927400Y-112440910D01*
X157305867Y-112715104D01*
X158711339Y-112715104D01*
X160089806Y-112440910D01*
X161388293Y-111903059D01*
X162556900Y-111122220D01*
X163550719Y-110128401D01*
X164331558Y-108959794D01*
X164869409Y-107661307D01*
X165143603Y-106282840D01*
X165143603Y-104898524D01*
X173618668Y-104898524D01*
X173618668Y-106303996D01*
X173892862Y-107682463D01*
X174430713Y-108980950D01*
X175211552Y-110149557D01*
X176205371Y-111143376D01*
X177373978Y-111924215D01*
X178672465Y-112462066D01*
X180050932Y-112736260D01*
X181456404Y-112736260D01*
X182834871Y-112462066D01*
X184133358Y-111924215D01*
X185301965Y-111143376D01*
X186295784Y-110149557D01*
X187076623Y-108980950D01*
X187614474Y-107682463D01*
X187888668Y-106303996D01*
X187888668Y-104898524D01*
X187614474Y-103520057D01*
X187076623Y-102221570D01*
X186295784Y-101052963D01*
X185301965Y-100059144D01*
X184133358Y-99278305D01*
X182834871Y-98740454D01*
X181456404Y-98466260D01*
X180050932Y-98466260D01*
X178672465Y-98740454D01*
X177373978Y-99278305D01*
X176205371Y-100059144D01*
X175211552Y-101052963D01*
X174430713Y-102221570D01*
X173892862Y-103520057D01*
X173618668Y-104898524D01*
X165143603Y-104898524D01*
X165143603Y-104877368D01*
X164869409Y-103498901D01*
X164331558Y-102200414D01*
X163550719Y-101031807D01*
X162556900Y-100037988D01*
X161388293Y-99257149D01*
X160089806Y-98719298D01*
X158711339Y-98445104D01*
X157305867Y-98445104D01*
X155927400Y-98719298D01*
X154628913Y-99257149D01*
X153460306Y-100037988D01*
X152466487Y-101031807D01*
X151685648Y-102200414D01*
X151147797Y-103498901D01*
X150873603Y-104877368D01*
X141203294Y-104877368D01*
X141120731Y-104462299D01*
X140782642Y-103646081D01*
X140291814Y-102911504D01*
X139667108Y-102286798D01*
X138932531Y-101795970D01*
X138116313Y-101457881D01*
X137249821Y-101285525D01*
X136366353Y-101285525D01*
X135499861Y-101457881D01*
X134683643Y-101795970D01*
X133949066Y-102286798D01*
X133324360Y-102911504D01*
X132833532Y-103646081D01*
X132495443Y-104462299D01*
X132323087Y-105328791D01*
X119447821Y-105328791D01*
X119254586Y-104357336D01*
X118867499Y-103422825D01*
X118305536Y-102581788D01*
X117590293Y-101866545D01*
X116749256Y-101304582D01*
X115814745Y-100917495D01*
X114822674Y-100720160D01*
X113811168Y-100720160D01*
X112819097Y-100917495D01*
X111884586Y-101304582D01*
X111043549Y-101866545D01*
X110328306Y-102581788D01*
X109766343Y-103422825D01*
X109379256Y-104357336D01*
X109181921Y-105349407D01*
X109103800Y-105349407D01*
X109103800Y-81652222D01*
X109160762Y-81652222D01*
X109160762Y-82663728D01*
X109358097Y-83655799D01*
X109745184Y-84590310D01*
X110307147Y-85431347D01*
X111022390Y-86146590D01*
X111863427Y-86708553D01*
X112797938Y-87095640D01*
X113790009Y-87292975D01*
X114801515Y-87292975D01*
X115793586Y-87095640D01*
X116728097Y-86708553D01*
X117569134Y-86146590D01*
X118284377Y-85431347D01*
X118846340Y-84590310D01*
X119233427Y-83655799D01*
X119430762Y-82663728D01*
X119430762Y-81695082D01*
X132323087Y-81695082D01*
X132323087Y-82578550D01*
X132495443Y-83445042D01*
X132833532Y-84261260D01*
X133324360Y-84995837D01*
X133949066Y-85620543D01*
X134683643Y-86111371D01*
X135499861Y-86449460D01*
X136366353Y-86621816D01*
X137249821Y-86621816D01*
X138116313Y-86449460D01*
X138932531Y-86111371D01*
X139667108Y-85620543D01*
X140291814Y-84995837D01*
X140782642Y-84261260D01*
X141120731Y-83445042D01*
X141293087Y-82578550D01*
X141293087Y-81695082D01*
X141224337Y-81349449D01*
X150894762Y-81349449D01*
X150894762Y-82754921D01*
X151168956Y-84133388D01*
X151706807Y-85431875D01*
X152487646Y-86600482D01*
X153481465Y-87594301D01*
X154650072Y-88375140D01*
X155948559Y-88912991D01*
X157327026Y-89187185D01*
X158732498Y-89187185D01*
X160110965Y-88912991D01*
X161409452Y-88375140D01*
X162578059Y-87594301D01*
X163571878Y-86600482D01*
X164352717Y-85431875D01*
X164890568Y-84133388D01*
X165164762Y-82754921D01*
X165164762Y-81349449D01*
X165160554Y-81328289D01*
X173618668Y-81328289D01*
X173618668Y-82733761D01*
X173892862Y-84112228D01*
X174430713Y-85410715D01*
X175211552Y-86579322D01*
X176205371Y-87573141D01*
X177373978Y-88353980D01*
X178672465Y-88891831D01*
X180050932Y-89166025D01*
X181456404Y-89166025D01*
X182834871Y-88891831D01*
X184133358Y-88353980D01*
X185301965Y-87573141D01*
X186295784Y-86579322D01*
X187076623Y-85410715D01*
X187614474Y-84112228D01*
X187888668Y-82733761D01*
X187888668Y-81328289D01*
X187614474Y-79949822D01*
X187076623Y-78651335D01*
X186295784Y-77482728D01*
X185301965Y-76488909D01*
X184133358Y-75708070D01*
X182834871Y-75170219D01*
X181456404Y-74896025D01*
X180050932Y-74896025D01*
X178672465Y-75170219D01*
X177373978Y-75708070D01*
X176205371Y-76488909D01*
X175211552Y-77482728D01*
X174430713Y-78651335D01*
X173892862Y-79949822D01*
X173618668Y-81328289D01*
X165160554Y-81328289D01*
X164890568Y-79970982D01*
X164352717Y-78672495D01*
X163571878Y-77503888D01*
X162578059Y-76510069D01*
X161409452Y-75729230D01*
X160110965Y-75191379D01*
X158732498Y-74917185D01*
X157327026Y-74917185D01*
X155948559Y-75191379D01*
X154650072Y-75729230D01*
X153481465Y-76510069D01*
X152487646Y-77503888D01*
X151706807Y-78672495D01*
X151168956Y-79970982D01*
X150894762Y-81349449D01*
X141224337Y-81349449D01*
X141120731Y-80828590D01*
X140782642Y-80012372D01*
X140291814Y-79277795D01*
X139667108Y-78653089D01*
X138932531Y-78162261D01*
X138116313Y-77824172D01*
X137249821Y-77651816D01*
X136366353Y-77651816D01*
X135499861Y-77824172D01*
X134683643Y-78162261D01*
X133949066Y-78653089D01*
X133324360Y-79277795D01*
X132833532Y-80012372D01*
X132495443Y-80828590D01*
X132323087Y-81695082D01*
X119430762Y-81695082D01*
X119430762Y-81652222D01*
X119233427Y-80660151D01*
X118846340Y-79725640D01*
X118284377Y-78884603D01*
X117569134Y-78169360D01*
X116728097Y-77607397D01*
X115793586Y-77220310D01*
X114801515Y-77022975D01*
X113790009Y-77022975D01*
X112797938Y-77220310D01*
X111863427Y-77607397D01*
X111022390Y-78169360D01*
X110307147Y-78884603D01*
X109745184Y-79725640D01*
X109358097Y-80660151D01*
X109160762Y-81652222D01*
X109103800Y-81652222D01*
X109103800Y-57701138D01*
X109181921Y-57701138D01*
X109181921Y-58712644D01*
X109379256Y-59704715D01*
X109766343Y-60639226D01*
X110328306Y-61480263D01*
X111043549Y-62195506D01*
X111884586Y-62757469D01*
X112819097Y-63144556D01*
X113811168Y-63341891D01*
X114822674Y-63341891D01*
X115814745Y-63144556D01*
X116749256Y-62757469D01*
X117590293Y-62195506D01*
X118305536Y-61480263D01*
X118867499Y-60639226D01*
X119254586Y-59704715D01*
X119451921Y-58712644D01*
X119451921Y-57722841D01*
X132344246Y-57722841D01*
X132344246Y-58606309D01*
X132516602Y-59472801D01*
X132854691Y-60289019D01*
X133345519Y-61023596D01*
X133970225Y-61648302D01*
X134704802Y-62139130D01*
X135521020Y-62477219D01*
X136387512Y-62649575D01*
X137270980Y-62649575D01*
X138137472Y-62477219D01*
X138953690Y-62139130D01*
X139688267Y-61648302D01*
X140312973Y-61023596D01*
X140803801Y-60289019D01*
X141141890Y-59472801D01*
X141314246Y-58606309D01*
X141314246Y-57722841D01*
X141228661Y-57292574D01*
X150873603Y-57292574D01*
X150873603Y-58698046D01*
X151147797Y-60076513D01*
X151685648Y-61375000D01*
X152466487Y-62543607D01*
X153460306Y-63537426D01*
X154628913Y-64318265D01*
X155927400Y-64856116D01*
X157305867Y-65130310D01*
X158711339Y-65130310D01*
X160089806Y-64856116D01*
X161388293Y-64318265D01*
X162556900Y-63537426D01*
X163550719Y-62543607D01*
X164331558Y-61375000D01*
X164869409Y-60076513D01*
X165143603Y-58698046D01*
X165143603Y-57313733D01*
X173618668Y-57313733D01*
X173618668Y-58719205D01*
X173892862Y-60097672D01*
X174430713Y-61396159D01*
X175211552Y-62564766D01*
X176205371Y-63558585D01*
X177373978Y-64339424D01*
X178672465Y-64877275D01*
X180050932Y-65151469D01*
X181456404Y-65151469D01*
X182834871Y-64877275D01*
X184133358Y-64339424D01*
X185301965Y-63558585D01*
X186295784Y-62564766D01*
X187076623Y-61396159D01*
X187614474Y-60097672D01*
X187888668Y-58719205D01*
X187888668Y-57313733D01*
X187614474Y-55935266D01*
X187076623Y-54636779D01*
X186295784Y-53468172D01*
X185301965Y-52474353D01*
X184133358Y-51693514D01*
X182834871Y-51155663D01*
X181456404Y-50881469D01*
X180050932Y-50881469D01*
X178672465Y-51155663D01*
X177373978Y-51693514D01*
X176205371Y-52474353D01*
X175211552Y-53468172D01*
X174430713Y-54636779D01*
X173892862Y-55935266D01*
X173618668Y-57313733D01*
X165143603Y-57313733D01*
X165143603Y-57292574D01*
X164869409Y-55914107D01*
X164331558Y-54615620D01*
X163550719Y-53447013D01*
X162556900Y-52453194D01*
X161388293Y-51672355D01*
X160089806Y-51134504D01*
X158711339Y-50860310D01*
X157305867Y-50860310D01*
X155927400Y-51134504D01*
X154628913Y-51672355D01*
X153460306Y-52453194D01*
X152466487Y-53447013D01*
X151685648Y-54615620D01*
X151147797Y-55914107D01*
X150873603Y-57292574D01*
X141228661Y-57292574D01*
X141141890Y-56856349D01*
X140803801Y-56040131D01*
X140312973Y-55305554D01*
X139688267Y-54680848D01*
X138953690Y-54190020D01*
X138137472Y-53851931D01*
X137270980Y-53679575D01*
X136387512Y-53679575D01*
X135521020Y-53851931D01*
X134704802Y-54190020D01*
X133970225Y-54680848D01*
X133345519Y-55305554D01*
X132854691Y-56040131D01*
X132516602Y-56856349D01*
X132344246Y-57722841D01*
X119451921Y-57722841D01*
X119451921Y-57701138D01*
X119254586Y-56709067D01*
X118867499Y-55774556D01*
X118305536Y-54933519D01*
X117590293Y-54218276D01*
X116749256Y-53656313D01*
X115814745Y-53269226D01*
X114822674Y-53071891D01*
X113811168Y-53071891D01*
X112819097Y-53269226D01*
X111884586Y-53656313D01*
X111043549Y-54218276D01*
X110328306Y-54933519D01*
X109766343Y-55774556D01*
X109379256Y-56709067D01*
X109181921Y-57701138D01*
X109103800Y-57701138D01*
X109103800Y-41346300D01*
X114907584Y-41346300D01*
X114676802Y-41441893D01*
M02*
