G04 #@! TF.GenerationSoftware,KiCad,Pcbnew,(5.1.4-0-10_14)*
G04 #@! TF.CreationDate,2019-10-29T14:06:04+01:00*
G04 #@! TF.ProjectId,benjolin_panel3,62656e6a-6f6c-4696-9e5f-70616e656c33,rev?*
G04 #@! TF.SameCoordinates,Original*
G04 #@! TF.FileFunction,Legend,Bot*
G04 #@! TF.FilePolarity,Positive*
%FSLAX46Y46*%
G04 Gerber Fmt 4.6, Leading zero omitted, Abs format (unit mm)*
G04 Created by KiCad (PCBNEW (5.1.4-0-10_14)) date 2019-10-29 14:06:04*
%MOMM*%
%LPD*%
G04 APERTURE LIST*
%ADD10C,0.200000*%
G04 APERTURE END LIST*
D10*
X179142447Y-160742380D02*
X179142447Y-161456666D01*
X179190066Y-161599523D01*
X179285304Y-161694761D01*
X179428161Y-161742380D01*
X179523400Y-161742380D01*
X178190066Y-161742380D02*
X178666257Y-161742380D01*
X178666257Y-160742380D01*
X177285304Y-161647142D02*
X177332923Y-161694761D01*
X177475780Y-161742380D01*
X177571019Y-161742380D01*
X177713876Y-161694761D01*
X177809114Y-161599523D01*
X177856733Y-161504285D01*
X177904352Y-161313809D01*
X177904352Y-161170952D01*
X177856733Y-160980476D01*
X177809114Y-160885238D01*
X177713876Y-160790000D01*
X177571019Y-160742380D01*
X177475780Y-160742380D01*
X177332923Y-160790000D01*
X177285304Y-160837619D01*
X176571019Y-160742380D02*
X176571019Y-161456666D01*
X176618638Y-161599523D01*
X176713876Y-161694761D01*
X176856733Y-161742380D01*
X176951971Y-161742380D01*
X175618638Y-161742380D02*
X176094828Y-161742380D01*
X176094828Y-160742380D01*
X174713876Y-161647142D02*
X174761495Y-161694761D01*
X174904352Y-161742380D01*
X174999590Y-161742380D01*
X175142447Y-161694761D01*
X175237685Y-161599523D01*
X175285304Y-161504285D01*
X175332923Y-161313809D01*
X175332923Y-161170952D01*
X175285304Y-160980476D01*
X175237685Y-160885238D01*
X175142447Y-160790000D01*
X174999590Y-160742380D01*
X174904352Y-160742380D01*
X174761495Y-160790000D01*
X174713876Y-160837619D01*
X173999590Y-160742380D02*
X173999590Y-161456666D01*
X174047209Y-161599523D01*
X174142447Y-161694761D01*
X174285304Y-161742380D01*
X174380542Y-161742380D01*
X173047209Y-161742380D02*
X173523400Y-161742380D01*
X173523400Y-160742380D01*
X172142447Y-161647142D02*
X172190066Y-161694761D01*
X172332923Y-161742380D01*
X172428161Y-161742380D01*
X172571019Y-161694761D01*
X172666257Y-161599523D01*
X172713876Y-161504285D01*
X172761495Y-161313809D01*
X172761495Y-161170952D01*
X172713876Y-160980476D01*
X172666257Y-160885238D01*
X172571019Y-160790000D01*
X172428161Y-160742380D01*
X172332923Y-160742380D01*
X172190066Y-160790000D01*
X172142447Y-160837619D01*
X171428161Y-160742380D02*
X171428161Y-161456666D01*
X171475780Y-161599523D01*
X171571019Y-161694761D01*
X171713876Y-161742380D01*
X171809114Y-161742380D01*
X170475780Y-161742380D02*
X170951971Y-161742380D01*
X170951971Y-160742380D01*
X169571019Y-161647142D02*
X169618638Y-161694761D01*
X169761495Y-161742380D01*
X169856733Y-161742380D01*
X169999590Y-161694761D01*
X170094828Y-161599523D01*
X170142447Y-161504285D01*
X170190066Y-161313809D01*
X170190066Y-161170952D01*
X170142447Y-160980476D01*
X170094828Y-160885238D01*
X169999590Y-160790000D01*
X169856733Y-160742380D01*
X169761495Y-160742380D01*
X169618638Y-160790000D01*
X169571019Y-160837619D01*
M02*
